<svg width="17" height="17" viewBox="0 0 17 17" fill="none" xmlns="http://www.w3.org/2000/svg">
<g id="eye">
<mask id="mask0_0_5800" style="mask-type:luminance" maskUnits="userSpaceOnUse" x="0" y="0" width="16" height="16">
<path id="eye_2" fill-rule="evenodd" clip-rule="evenodd" d="M0.0576172 0.874512H15.0283V15.5194H0.0576172V0.874512Z" fill="white"/>
</mask>
<g mask="url(#mask0_0_5800)">
<path id="&#229;&#183;&#174;&#233;&#155;&#134;" fill-rule="evenodd" clip-rule="evenodd" d="M5.20996 8.06788C5.20996 6.74379 6.36311 5.67041 7.7856 5.67041C9.20806 5.67041 10.3612 6.74379 10.3612 8.06788C10.3612 9.39194 9.20806 10.4654 7.7856 10.4654C6.36311 10.4654 5.20996 9.39194 5.20996 8.06788V8.06788ZM6.81934 8.06751C6.81934 7.57099 7.25179 7.16846 7.7852 7.16846C8.31862 7.16846 8.75107 7.57099 8.75107 8.06751C8.75107 8.56402 8.31862 8.96656 7.7852 8.96656C7.25179 8.96656 6.81934 8.56402 6.81934 8.06751V8.06751Z" fill="white"/>
<path id="&#229;&#183;&#174;&#233;&#155;&#134;_2" fill-rule="evenodd" clip-rule="evenodd" d="M14.8682 8.06789C14.8682 8.06789 12.6145 3.27295 7.78516 3.27295C2.95583 3.27295 0.702148 8.06789 0.702148 8.06789C0.702148 8.06789 2.95583 12.8628 7.78516 12.8628C12.6145 12.8628 14.8682 8.06789 14.8682 8.06789V8.06789ZM7.78556 11.364C9.57569 11.364 10.9465 10.4846 11.9452 9.45877C12.4324 8.95842 12.7999 8.45255 13.0467 8.06751C12.7999 7.68248 12.4324 7.17662 11.9452 6.67627C10.9465 5.65043 9.57569 4.771 7.78556 4.771C5.99542 4.771 4.62462 5.65043 3.62588 6.67627C3.13872 7.17662 2.77121 7.68248 2.52441 8.06751C2.77121 8.45255 3.13872 8.95842 3.62588 9.45877C4.62462 10.4846 5.99542 11.364 7.78556 11.364V11.364Z" fill="white"/>
</g>
</g>
</svg>
