<svg width="25" height="23" viewBox="0 0 25 23" fill="none" xmlns="http://www.w3.org/2000/svg">
<g id="Frame 12">
<g id="&#240;&#159;&#166;&#134; icon &#34;home&#34;">
<path id="Vector" d="M11.7012 0.303471C11.9214 0.107974 12.2056 0 12.5 0C12.7944 0 13.0786 0.107974 13.2988 0.303471L24.1256 9.92727C24.3519 10.1423 24.4858 10.4368 24.4989 10.7487C24.5121 11.0606 24.4035 11.3654 24.1961 11.5987C23.9888 11.832 23.6988 11.9755 23.3875 11.999C23.0763 12.0225 22.768 11.9241 22.528 11.7245L22.1238 11.3672V20.4497C22.1238 21.0878 21.8703 21.6998 21.4191 22.151C20.9679 22.6022 20.3559 22.8556 19.7179 22.8556H5.28215C4.64405 22.8556 4.03209 22.6022 3.58089 22.151C3.12968 21.6998 2.8762 21.0878 2.8762 20.4497V11.3672L2.472 11.7245C2.23196 11.9241 1.92374 12.0225 1.61247 11.999C1.3012 11.9755 1.01125 11.832 0.803861 11.5987C0.596476 11.3654 0.487901 11.0606 0.501072 10.7487C0.514244 10.4368 0.64813 10.1423 0.874448 9.92727L11.7012 0.303471ZM5.28215 9.22594V20.4497H8.89107V14.4348C8.89107 14.1158 9.01782 13.8098 9.24342 13.5842C9.46902 13.3586 9.775 13.2318 10.094 13.2318H14.906C15.225 13.2318 15.531 13.3586 15.7566 13.5842C15.9822 13.8098 16.1089 14.1158 16.1089 14.4348V20.4497H19.7179V9.22714L12.5 2.81167L5.28215 9.22594ZM13.703 20.4497V15.6378H11.297V20.4497H13.703Z" fill="#15097A"/>
</g>
</g>
</svg>
