<svg xmlns="http://www.w3.org/2000/svg" width="114" height="75" viewBox="0 0 114 75" fill="none">
  <g filter="url(#filter0_d_668_19)">
    <g filter="url(#filter1_d_668_19)">
      <path fill-rule="evenodd" clip-rule="evenodd"
            d="M30 42C30 27.0883 42.0883 15 57 15C71.9117 15 84 27.0883 84 42C84 56.9117 71.9117 69 57 69C42.0883 69 30 56.9117 30 42Z"
            fill="url(#paint0_linear_668_19)"/>
    </g>
  </g>
  <path fill-rule="evenodd" clip-rule="evenodd"
        d="M43.8457 56.5385H47.0732C48.1491 51.2314 50.8419 48.3127 55.1534 47.7808C61.6149 46.9847 66.4611 41.4116 68.0765 36.6347L65.6534 35.0424L67.2688 33.4501C68.8842 31.8578 70.506 29.4693 72.9226 24.6924C48.6919 24.6924 45.4611 46.9847 43.8457 56.5385Z"
        fill="white"/>
  <defs>
    <filter id="filter0_d_668_19" x="26" y="15" width="62" height="62" filterUnits="userSpaceOnUse"
            color-interpolation-filters="sRGB">
      <feFlood flood-opacity="0" result="BackgroundImageFix"/>
      <feColorMatrix in="SourceAlpha" type="matrix" values="0 0 0 0 0 0 0 0 0 0 0 0 0 0 0 0 0 0 127 0"
                     result="hardAlpha"/>
      <feOffset dy="4"/>
      <feGaussianBlur stdDeviation="2"/>
      <feColorMatrix type="matrix" values="0 0 0 0 0 0 0 0 0 0 0 0 0 0 0 0 0 0 0.25098 0"/>
      <feBlend mode="normal" in2="BackgroundImageFix" result="effect1_dropShadow_668_19"/>
      <feBlend mode="normal" in="SourceGraphic" in2="effect1_dropShadow_668_19" result="shape"/>
    </filter>
    <filter id="filter1_d_668_19" x="0" y="0" width="114" height="114" filterUnits="userSpaceOnUse"
            color-interpolation-filters="sRGB">
      <feFlood flood-opacity="0" result="BackgroundImageFix"/>
      <feColorMatrix in="SourceAlpha" type="matrix" values="0 0 0 0 0 0 0 0 0 0 0 0 0 0 0 0 0 0 127 0"
                     result="hardAlpha"/>
      <feOffset dy="15"/>
      <feGaussianBlur stdDeviation="15"/>
      <feColorMatrix type="matrix" values="0 0 0 0 0.0784314 0 0 0 0 0.4 0 0 0 0 0.8 0 0 0 0.160784 0"/>
      <feBlend mode="normal" in2="BackgroundImageFix" result="effect1_dropShadow_668_19"/>
      <feBlend mode="normal" in="SourceGraphic" in2="effect1_dropShadow_668_19" result="shape"/>
    </filter>
    <linearGradient id="paint0_linear_668_19" x1="84" y1="-12" x2="30" y2="-12" gradientUnits="userSpaceOnUse">
      <stop stop-color="#FF006A"/>
      <stop offset="1" stop-color="#062C81"/>
      <stop offset="1" stop-color="#36D1F1"/>
    </linearGradient>
  </defs>
</svg>
