<svg width="24" height="24" viewBox="0 0 24 24" fill="none" xmlns="http://www.w3.org/2000/svg">
<g id="Frame 6">
<g id="&#231;&#187;&#132;&#229;&#144;&#136; 180">
<g id="&#231;&#187;&#132;&#229;&#144;&#136; 211">
<path id="&#229;&#183;&#174;&#233;&#155;&#134;" fill-rule="evenodd" clip-rule="evenodd" d="M11.9059 6.02578C11.9059 7.6912 10.5742 9.0413 8.93145 9.0413C7.28872 9.0413 5.95703 7.6912 5.95703 6.02578C5.95703 4.36035 7.28872 3.01025 8.93145 3.01025C10.5742 3.01025 11.9059 4.36035 11.9059 6.02578ZM8.93198 11.0517C11.6699 11.0517 13.8893 8.80158 13.8893 6.02587C13.8893 3.25016 11.6699 1 8.93198 1C6.1941 1 3.97461 3.25016 3.97461 6.02587C3.97461 8.80158 6.1941 11.0517 8.93198 11.0517Z" fill="#A9A4CC"/>
<path id="shape" fill-rule="evenodd" clip-rule="evenodd" d="M1.99139 21.1037C2.53897 21.1037 2.9765 20.6581 3.04419 20.1148C3.4462 16.8876 5.8015 14.0675 9.42754 14.0675C9.91359 14.0675 10.372 14.1168 10.8026 14.2083C11.3482 14.3242 11.9351 14.0763 12.1364 13.5562C12.335 13.0428 12.0837 12.4587 11.5508 12.321C10.8839 12.1487 10.1746 12.0571 9.42754 12.0571C4.46271 12.0571 1.46892 16.0165 1.05056 20.1139C0.99495 20.6587 1.44381 21.1037 1.99139 21.1037Z" fill="#A9A4CC"/>
<path id="&#229;&#183;&#174;&#233;&#155;&#134;_2" fill-rule="evenodd" clip-rule="evenodd" d="M19.0428 12.6306C19.8717 13.8568 21.0994 14.7583 22.5174 15.182C23.2524 15.4017 23.5407 16.3012 23.0734 16.9169C22.1711 18.1058 21.7014 19.567 21.7418 21.0589L21.7422 21.0706C21.7632 21.8472 21.0086 22.4031 20.2865 22.1428C18.8944 21.6409 17.3707 21.6409 15.9786 22.1428C15.2566 22.4031 14.5019 21.8472 14.523 21.0706L14.5233 21.059C14.5638 19.567 14.094 18.1058 13.1917 16.9169C12.7244 16.3012 13.0127 15.4017 13.7477 15.182C15.1658 14.7583 16.3934 13.8568 17.2223 12.6306L17.2329 12.6149C17.6661 11.9741 18.599 11.9741 19.0322 12.6149L19.0428 12.6306ZM18.9012 15.9783C18.533 15.4336 17.7309 15.4336 17.3627 15.9783C17.2426 16.156 17.0647 16.2866 16.8593 16.348L16.8556 16.3491C16.2271 16.5369 15.9797 17.2947 16.3762 17.8172L16.3864 17.8306C16.5161 18.0015 16.5778 18.2115 16.5778 18.4259L16.5772 18.4492C16.5595 19.1016 17.2037 19.5674 17.8177 19.346C18.0208 19.2728 18.2431 19.2728 18.4462 19.346C19.0601 19.5674 19.7044 19.1016 19.6867 18.4492L19.6862 18.4284C19.6862 18.2123 19.7483 18.0008 19.879 17.8286L19.8877 17.8172C20.2842 17.2946 20.0368 16.5369 19.4083 16.3491L19.4046 16.348C19.1992 16.2866 19.0213 16.156 18.9012 15.9783Z" fill="#A9A4CC"/>
</g>
</g>
</g>
</svg>
