<svg width="27" height="27" viewBox="0 0 27 27" fill="none" xmlns="http://www.w3.org/2000/svg">
<g id="Frame 3">
<g id="&#231;&#187;&#132;&#229;&#144;&#136; 436">
<path id="&#229;&#183;&#174;&#233;&#155;&#134;" fill-rule="evenodd" clip-rule="evenodd" d="M12.5782 6.20654C9.43614 6.20654 6.88379 8.76379 6.88379 11.9119C6.88379 15.0601 9.43614 17.6173 12.5782 17.6173C15.7204 17.6173 18.2727 15.0601 18.2727 11.9119C18.2727 8.76379 15.7204 6.20654 12.5782 6.20654V6.20654ZM15.1949 14.112C14.6966 14.7079 13.9944 15.138 13.1713 15.2825C12.4073 15.418 11.5935 15.2953 10.8702 14.876C10.1981 14.4877 9.65338 13.8696 9.36833 13.0826C9.10249 12.3523 9.08182 11.528 9.36837 10.7415C9.63326 10.0108 10.1463 9.36607 10.8703 8.94816C11.542 8.55903 12.3487 8.3955 13.1714 8.54168C13.9356 8.67616 14.6585 9.07038 15.195 9.71225C15.6941 10.3074 15.9949 11.0749 15.9949 11.9121C15.9946 12.6895 15.7326 13.4712 15.1949 14.112V14.112Z" fill="white"/>
<path id="&#230;&#164;&#173;&#229;&#156;&#134; 62" fill-rule="evenodd" clip-rule="evenodd" d="M12.5785 9.8374C13.7221 9.8374 14.6492 10.7663 14.6492 11.9121C14.6492 13.0579 13.7221 13.9868 12.5785 13.9868C11.4349 13.9868 10.5078 13.0579 10.5078 11.9121C10.5078 10.7663 11.4349 9.8374 12.5785 9.8374V9.8374Z" fill="white"/>
</g>
</g>
</svg>
