<svg width="17" height="17" viewBox="0 0 17 17" fill="none" xmlns="http://www.w3.org/2000/svg">
<g id="&#231;&#187;&#132;&#229;&#144;&#136; 99">
<g id="caret-left">
<mask id="mask0_0_5943" style="mask-type:luminance" maskUnits="userSpaceOnUse" x="0" y="-1" width="17" height="18">
<path id="caret-left_2" fill-rule="evenodd" clip-rule="evenodd" d="M0 -0.000488281L17 -0.000488281L17 16.9995L0 16.9995L0 -0.000488281Z" fill="white"/>
</mask>
<g mask="url(#mask0_0_5943)">
<path id="Vector" fill-rule="evenodd" clip-rule="evenodd" d="M10.6275 8.62141L6.37381 12.9414C6.33187 12.984 6.29516 13.03 6.26368 13.0783C6.04347 13.4171 6.08018 13.8774 6.37381 14.1757C6.70938 14.5165 7.25353 14.5165 7.58916 14.1757L12.4504 9.23856C12.4706 9.21811 12.4896 9.19675 12.5075 9.17454C12.6328 9.01926 12.7021 8.82397 12.7021 8.62141C12.7021 8.38996 12.6116 8.168 12.4504 8.00426L7.58916 3.06715C7.25353 2.72632 6.70938 2.72632 6.37381 3.06715C6.33187 3.10976 6.29516 3.15567 6.26368 3.20406C6.04347 3.54283 6.08018 4.0032 6.37381 4.30144L10.6275 8.62141V8.62141Z" fill="#000989"/>
</g>
</g>
</g>
</svg>
