<svg xmlns="http://www.w3.org/2000/svg" width="19" height="19" viewBox="0 0 19 19" fill="none">
  <path fill-rule="evenodd" clip-rule="evenodd" d="M1.83473e-06 0H18.3415V18.4293H1.83473e-06V0Z" fill="black"
        fill-opacity="0.01"/>
  <path fill-rule="evenodd" clip-rule="evenodd" d="M1.83473e-06 0H18.3415V18.4293H1.83473e-06V0Z" fill="black"
        fill-opacity="0.01"/>
  <path fill-rule="evenodd" clip-rule="evenodd"
        d="M0.698091 5.68884C0.00398201 7.37261 -0.177638 9.22537 0.176211 11.0128C0.53008 12.8003 1.4035 14.4422 2.68605 15.7309C3.9686 17.0196 5.60267 17.8972 7.38162 18.2527C9.16057 18.6083 11.0045 18.4258 12.6802 17.7284C14.356 17.0309 15.7882 15.8499 16.7959 14.3345C17.8036 12.8192 18.3415 11.0376 18.3415 9.21514C18.3415 6.77127 17.3753 4.42748 15.6554 2.69941C13.9356 0.97132 11.603 0.000488281 9.17074 0.000488281C7.35693 0.000488281 5.58387 0.540925 4.07575 1.55344C2.56763 2.56596 1.3922 4.0051 0.698091 5.68884ZM5.53942 10.7265C5.24194 10.0049 5.16411 9.21087 5.31576 8.44482C5.46741 7.67875 5.84173 6.97509 6.3914 6.42279C6.94107 5.8705 7.64138 5.49437 8.40378 5.342C9.16619 5.18962 9.95645 5.26783 10.6746 5.56672C11.3928 5.86562 12.0066 6.37179 12.4385 7.02123C12.8704 7.67066 13.1009 8.43419 13.1009 9.21525C13.1009 10.2626 12.6868 11.2671 11.9497 12.0077C11.2126 12.7483 10.2129 13.1644 9.17055 13.1644C8.3932 13.1644 7.63332 12.9328 6.98699 12.4988C6.34065 12.0649 5.83689 11.4481 5.53942 10.7265Z"
        fill="#15097A"/>
</svg>
